<mxGraphModel dx="1418" dy="786" grid="1" gridSize="10" guides="1" tooltips="1" connect="1" arrows="1" fold="1" page="1" pageScale="1" pageWidth="827" pageHeight="1169" math="0" shadow="0">
  <root>
    <mxCell id="0" />
    <mxCell id="1" parent="0" />
    <mxCell id="0SLbNZERhyK-JWsD4oOD-16" style="edgeStyle=orthogonalEdgeStyle;rounded=0;orthogonalLoop=1;jettySize=auto;html=1;entryX=0.5;entryY=0;entryDx=0;entryDy=0;" parent="1" source="2" target="3" edge="1">
      <mxGeometry relative="1" as="geometry" />
    </mxCell>
    <mxCell id="2" value="START" style="ellipse;whiteSpace=wrap;html=1;fillColor=#dae8fc;strokeColor=#6c8ebf;" parent="1" vertex="1">
      <mxGeometry x="350" y="40" width="120" height="50" as="geometry" />
    </mxCell>
    <mxCell id="0SLbNZERhyK-JWsD4oOD-17" style="edgeStyle=orthogonalEdgeStyle;rounded=0;orthogonalLoop=1;jettySize=auto;html=1;entryX=0.5;entryY=0;entryDx=0;entryDy=0;" parent="1" source="3" target="0SLbNZERhyK-JWsD4oOD-45" edge="1">
      <mxGeometry relative="1" as="geometry" />
    </mxCell>
    <mxCell id="3" value="แสดงหน้าจอหลัก/เมนูสินค้า (สถานะ IDLE)" style="rounded=0;whiteSpace=wrap;html=1;fillColor=#d5e8d4;strokeColor=#82b366;" parent="1" vertex="1">
      <mxGeometry x="320" y="120" width="180" height="60" as="geometry" />
    </mxCell>
    <mxCell id="0SLbNZERhyK-JWsD4oOD-18" style="edgeStyle=orthogonalEdgeStyle;rounded=0;orthogonalLoop=1;jettySize=auto;html=1;entryX=1;entryY=0.5;entryDx=0;entryDy=0;" parent="1" source="4" target="5" edge="1">
      <mxGeometry relative="1" as="geometry" />
    </mxCell>
    <mxCell id="0SLbNZERhyK-JWsD4oOD-34" value="Y" style="edgeLabel;html=1;align=center;verticalAlign=middle;resizable=0;points=[];" parent="0SLbNZERhyK-JWsD4oOD-18" connectable="0" vertex="1">
      <mxGeometry x="-0.2703" relative="1" as="geometry">
        <mxPoint as="offset" />
      </mxGeometry>
    </mxCell>
    <mxCell id="0SLbNZERhyK-JWsD4oOD-19" value="" style="edgeStyle=orthogonalEdgeStyle;rounded=0;orthogonalLoop=1;jettySize=auto;html=1;entryX=0.5;entryY=0;entryDx=0;entryDy=0;" parent="1" source="4" target="0SLbNZERhyK-JWsD4oOD-49" edge="1">
      <mxGeometry relative="1" as="geometry" />
    </mxCell>
    <mxCell id="0SLbNZERhyK-JWsD4oOD-35" value="N" style="edgeLabel;html=1;align=center;verticalAlign=middle;resizable=0;points=[];" parent="0SLbNZERhyK-JWsD4oOD-19" connectable="0" vertex="1">
      <mxGeometry x="-0.3576" relative="1" as="geometry">
        <mxPoint x="10" y="-10" as="offset" />
      </mxGeometry>
    </mxCell>
    <mxCell id="4" value="ผู้ดูแลระบบเข้าสู่ระบบ?" style="rhombus;whiteSpace=wrap;html=1;fillColor=#f8cecc;strokeColor=#b85450;" parent="1" vertex="1">
      <mxGeometry x="330" y="220" width="160" height="80" as="geometry" />
    </mxCell>
    <mxCell id="0SLbNZERhyK-JWsD4oOD-48" style="edgeStyle=orthogonalEdgeStyle;rounded=0;orthogonalLoop=1;jettySize=auto;html=1;entryX=0;entryY=0.5;entryDx=0;entryDy=0;" parent="1" source="5" target="0SLbNZERhyK-JWsD4oOD-45" edge="1">
      <mxGeometry relative="1" as="geometry">
        <Array as="points">
          <mxPoint x="190" y="205" />
        </Array>
      </mxGeometry>
    </mxCell>
    <mxCell id="5" value="**ระบบผู้ดูแลระบบ**&lt;br&gt;1. ตรวจสอบ/เติม Stock (น้ำ/ขนม)&lt;br&gt;2. ตรวจสอบยอดเงินคงเหลือในตู้ (เหรียญ/ธนบัตร)&lt;br&gt;3. ออกจากระบบ" style="rounded=0;whiteSpace=wrap;html=1;fillColor=#fff2cc;strokeColor=#d6b656;" parent="1" vertex="1">
      <mxGeometry x="90" y="220" width="200" height="80" as="geometry" />
    </mxCell>
    <mxCell id="0SLbNZERhyK-JWsD4oOD-20" value="" style="edgeStyle=orthogonalEdgeStyle;rounded=0;orthogonalLoop=1;jettySize=auto;html=1;" parent="1" source="6" target="7" edge="1">
      <mxGeometry relative="1" as="geometry" />
    </mxCell>
    <mxCell id="0SLbNZERhyK-JWsD4oOD-36" value="Y" style="edgeLabel;html=1;align=center;verticalAlign=middle;resizable=0;points=[];" parent="0SLbNZERhyK-JWsD4oOD-20" connectable="0" vertex="1">
      <mxGeometry x="-0.1242" relative="1" as="geometry">
        <mxPoint as="offset" />
      </mxGeometry>
    </mxCell>
    <mxCell id="0SLbNZERhyK-JWsD4oOD-21" value="" style="edgeStyle=orthogonalEdgeStyle;rounded=0;orthogonalLoop=1;jettySize=auto;html=1;entryX=0.5;entryY=0;entryDx=0;entryDy=0;" parent="1" source="6" target="0SLbNZERhyK-JWsD4oOD-53" edge="1">
      <mxGeometry relative="1" as="geometry" />
    </mxCell>
    <mxCell id="0SLbNZERhyK-JWsD4oOD-37" value="N" style="edgeLabel;html=1;align=center;verticalAlign=middle;resizable=0;points=[];" parent="0SLbNZERhyK-JWsD4oOD-21" connectable="0" vertex="1">
      <mxGeometry x="-0.5091" y="-1" relative="1" as="geometry">
        <mxPoint x="11" y="-1" as="offset" />
      </mxGeometry>
    </mxCell>
    <mxCell id="6" value="ลูกค้าเลือกสินค้า?" style="rhombus;whiteSpace=wrap;html=1;fillColor=#f8cecc;strokeColor=#b85450;" parent="1" vertex="1">
      <mxGeometry x="330" y="340" width="160" height="80" as="geometry" />
    </mxCell>
    <mxCell id="0SLbNZERhyK-JWsD4oOD-52" style="edgeStyle=orthogonalEdgeStyle;rounded=0;orthogonalLoop=1;jettySize=auto;html=1;entryX=0;entryY=0.5;entryDx=0;entryDy=0;" parent="1" source="7" target="0SLbNZERhyK-JWsD4oOD-49" edge="1">
      <mxGeometry relative="1" as="geometry">
        <Array as="points">
          <mxPoint x="200" y="323" />
        </Array>
      </mxGeometry>
    </mxCell>
    <mxCell id="7" value="ลูกค้าเลือกสินค้า (น้ำ/ขนม)&lt;br&gt;[สินค้า: โค้ก, น้ำเขียว, อเมริกาโน่, ลาเต้หวานเจี๊ยบ, เมล็ดทานตะวัน, ถั่วแปบ, จิ้นส้มหมก]" style="rounded=0;whiteSpace=wrap;html=1;fillColor=#d5e8d4;strokeColor=#82b366;" parent="1" vertex="1">
      <mxGeometry x="110" y="340" width="180" height="80" as="geometry" />
    </mxCell>
    <mxCell id="0SLbNZERhyK-JWsD4oOD-56" style="edgeStyle=orthogonalEdgeStyle;rounded=0;orthogonalLoop=1;jettySize=auto;html=1;entryX=0;entryY=0.5;entryDx=0;entryDy=0;" parent="1" source="8" target="0SLbNZERhyK-JWsD4oOD-53" edge="1">
      <mxGeometry relative="1" as="geometry">
        <Array as="points">
          <mxPoint x="200" y="435" />
        </Array>
      </mxGeometry>
    </mxCell>
    <mxCell id="8" value="**รวมยอดและรายการสินค้า:**&lt;br&gt;- เพิ่มสินค้ารายการที่เลือก&lt;br&gt;- คำนวณราคารวมทั้งหมด" style="rounded=0;whiteSpace=wrap;html=1;fillColor=#dae8fc;strokeColor=#6c8ebf;" parent="1" vertex="1">
      <mxGeometry x="110" y="460" width="180" height="70" as="geometry" />
    </mxCell>
    <mxCell id="0SLbNZERhyK-JWsD4oOD-22" value="" style="edgeStyle=orthogonalEdgeStyle;rounded=0;orthogonalLoop=1;jettySize=auto;html=1;" parent="1" source="9" target="8" edge="1">
      <mxGeometry relative="1" as="geometry" />
    </mxCell>
    <mxCell id="0SLbNZERhyK-JWsD4oOD-38" value="Y" style="edgeLabel;html=1;align=center;verticalAlign=middle;resizable=0;points=[];" parent="0SLbNZERhyK-JWsD4oOD-22" connectable="0" vertex="1">
      <mxGeometry x="-0.0636" relative="1" as="geometry">
        <mxPoint as="offset" />
      </mxGeometry>
    </mxCell>
    <mxCell id="0SLbNZERhyK-JWsD4oOD-23" value="" style="edgeStyle=orthogonalEdgeStyle;rounded=0;orthogonalLoop=1;jettySize=auto;html=1;" parent="1" source="9" target="10" edge="1">
      <mxGeometry relative="1" as="geometry" />
    </mxCell>
    <mxCell id="0SLbNZERhyK-JWsD4oOD-39" value="N" style="edgeLabel;html=1;align=center;verticalAlign=middle;resizable=0;points=[];" parent="0SLbNZERhyK-JWsD4oOD-23" connectable="0" vertex="1">
      <mxGeometry x="-0.4492" y="1" relative="1" as="geometry">
        <mxPoint x="9" as="offset" />
      </mxGeometry>
    </mxCell>
    <mxCell id="9" value="เลือกสินค้าต่อ?" style="rhombus;whiteSpace=wrap;html=1;fillColor=#f8cecc;strokeColor=#b85450;" parent="1" vertex="1">
      <mxGeometry x="330" y="455" width="160" height="80" as="geometry" />
    </mxCell>
    <mxCell id="0SLbNZERhyK-JWsD4oOD-24" value="" style="edgeStyle=orthogonalEdgeStyle;rounded=0;orthogonalLoop=1;jettySize=auto;html=1;" parent="1" source="10" target="11" edge="1">
      <mxGeometry relative="1" as="geometry" />
    </mxCell>
    <mxCell id="10" value="แสดงยอดรวมและพร้อมรับเงิน" style="rounded=0;whiteSpace=wrap;html=1;fillColor=#d5e8d4;strokeColor=#82b366;" parent="1" vertex="1">
      <mxGeometry x="320" y="580" width="180" height="60" as="geometry" />
    </mxCell>
    <mxCell id="0SLbNZERhyK-JWsD4oOD-41" style="edgeStyle=orthogonalEdgeStyle;rounded=0;orthogonalLoop=1;jettySize=auto;html=1;entryX=0.5;entryY=0;entryDx=0;entryDy=0;" parent="1" source="11" target="0SLbNZERhyK-JWsD4oOD-33" edge="1">
      <mxGeometry relative="1" as="geometry" />
    </mxCell>
    <mxCell id="11" value="รับเงิน (เหรียญ/ธนบัตร)&lt;br&gt;[ปรับปรุงยอดเงินที่ได้รับ]" style="rounded=0;whiteSpace=wrap;html=1;fillColor=#dae8fc;strokeColor=#6c8ebf;" parent="1" vertex="1">
      <mxGeometry x="320" y="680" width="180" height="60" as="geometry" />
    </mxCell>
    <mxCell id="0SLbNZERhyK-JWsD4oOD-26" value="" style="edgeStyle=orthogonalEdgeStyle;rounded=0;orthogonalLoop=1;jettySize=auto;html=1;" parent="1" source="12" target="14" edge="1">
      <mxGeometry relative="1" as="geometry" />
    </mxCell>
    <mxCell id="0SLbNZERhyK-JWsD4oOD-28" value="" style="edgeStyle=orthogonalEdgeStyle;rounded=0;orthogonalLoop=1;jettySize=auto;html=1;" parent="1" source="12" target="13" edge="1">
      <mxGeometry relative="1" as="geometry" />
    </mxCell>
    <mxCell id="12" value="ยอดเงินที่ใส่ &amp;gt;= ยอดรวม?" style="rhombus;whiteSpace=wrap;html=1;fillColor=#f8cecc;strokeColor=#b85450;" parent="1" vertex="1">
      <mxGeometry x="330" y="780" width="160" height="80" as="geometry" />
    </mxCell>
    <mxCell id="0SLbNZERhyK-JWsD4oOD-32" style="edgeStyle=orthogonalEdgeStyle;rounded=0;orthogonalLoop=1;jettySize=auto;html=1;entryX=0.5;entryY=0;entryDx=0;entryDy=0;" parent="1" source="13" target="15" edge="1">
      <mxGeometry relative="1" as="geometry">
        <mxPoint x="414.9999999999924" y="996" as="targetPoint" />
        <Array as="points">
          <mxPoint x="640" y="996" />
          <mxPoint x="410" y="996" />
        </Array>
      </mxGeometry>
    </mxCell>
    <mxCell id="13" value="จ่ายสินค้าที่เลือกทั้งหมด" style="rounded=0;whiteSpace=wrap;html=1;fillColor=#d5e8d4;strokeColor=#82b366;" parent="1" vertex="1">
      <mxGeometry x="540" y="790" width="180" height="60" as="geometry" />
    </mxCell>
    <mxCell id="0SLbNZERhyK-JWsD4oOD-30" style="edgeStyle=orthogonalEdgeStyle;rounded=0;orthogonalLoop=1;jettySize=auto;html=1;entryX=0;entryY=0.5;entryDx=0;entryDy=0;" parent="1" source="14" target="0SLbNZERhyK-JWsD4oOD-33" edge="1">
      <mxGeometry relative="1" as="geometry">
        <mxPoint x="240" y="830" as="targetPoint" />
        <Array as="points">
          <mxPoint x="300" y="925" />
          <mxPoint x="300" y="765" />
        </Array>
      </mxGeometry>
    </mxCell>
    <mxCell id="14" value="คำนวณและทอนเงิน (ถ้ามี)&lt;br&gt;[ปรับปรุงยอดเงินคงเหลือในตู้]" style="rounded=0;whiteSpace=wrap;html=1;fillColor=#dae8fc;strokeColor=#6c8ebf;" parent="1" vertex="1">
      <mxGeometry x="320" y="890" width="180" height="70" as="geometry" />
    </mxCell>
    <mxCell id="15" value="ปรับปรุง Stock สินค้าที่จ่ายไป" style="rounded=0;whiteSpace=wrap;html=1;fillColor=#fff2cc;strokeColor=#d6b656;" parent="1" vertex="1">
      <mxGeometry x="320" y="1030" width="180" height="60" as="geometry" />
    </mxCell>
    <mxCell id="16" value="END (วนกลับไป IDLE)" style="ellipse;whiteSpace=wrap;html=1;fillColor=#dae8fc;strokeColor=#6c8ebf;" parent="1" vertex="1">
      <mxGeometry x="350" y="1100" width="120" height="50" as="geometry" />
    </mxCell>
    <mxCell id="0SLbNZERhyK-JWsD4oOD-42" style="edgeStyle=orthogonalEdgeStyle;rounded=0;orthogonalLoop=1;jettySize=auto;html=1;entryX=0.5;entryY=0;entryDx=0;entryDy=0;" parent="1" source="0SLbNZERhyK-JWsD4oOD-33" target="12" edge="1">
      <mxGeometry relative="1" as="geometry" />
    </mxCell>
    <mxCell id="0SLbNZERhyK-JWsD4oOD-33" value="" style="ellipse;whiteSpace=wrap;html=1;aspect=fixed;" parent="1" vertex="1">
      <mxGeometry x="405" y="760" width="10" height="10" as="geometry" />
    </mxCell>
    <mxCell id="0SLbNZERhyK-JWsD4oOD-46" style="edgeStyle=orthogonalEdgeStyle;rounded=0;orthogonalLoop=1;jettySize=auto;html=1;entryX=0.5;entryY=0;entryDx=0;entryDy=0;" parent="1" source="0SLbNZERhyK-JWsD4oOD-45" target="4" edge="1">
      <mxGeometry relative="1" as="geometry" />
    </mxCell>
    <mxCell id="0SLbNZERhyK-JWsD4oOD-45" value="" style="ellipse;whiteSpace=wrap;html=1;aspect=fixed;" parent="1" vertex="1">
      <mxGeometry x="405" y="200" width="10" height="10" as="geometry" />
    </mxCell>
    <mxCell id="0SLbNZERhyK-JWsD4oOD-51" style="edgeStyle=orthogonalEdgeStyle;rounded=0;orthogonalLoop=1;jettySize=auto;html=1;entryX=0.5;entryY=0;entryDx=0;entryDy=0;" parent="1" source="0SLbNZERhyK-JWsD4oOD-49" target="6" edge="1">
      <mxGeometry relative="1" as="geometry" />
    </mxCell>
    <mxCell id="0SLbNZERhyK-JWsD4oOD-49" value="" style="ellipse;whiteSpace=wrap;html=1;aspect=fixed;" parent="1" vertex="1">
      <mxGeometry x="405" y="318" width="10" height="10" as="geometry" />
    </mxCell>
    <mxCell id="0SLbNZERhyK-JWsD4oOD-55" style="edgeStyle=orthogonalEdgeStyle;rounded=0;orthogonalLoop=1;jettySize=auto;html=1;entryX=0.5;entryY=0;entryDx=0;entryDy=0;" parent="1" source="0SLbNZERhyK-JWsD4oOD-53" target="9" edge="1">
      <mxGeometry relative="1" as="geometry" />
    </mxCell>
    <mxCell id="0SLbNZERhyK-JWsD4oOD-53" value="" style="ellipse;whiteSpace=wrap;html=1;aspect=fixed;" parent="1" vertex="1">
      <mxGeometry x="405" y="430" width="10" height="10" as="geometry" />
    </mxCell>
  </root>
</mxGraphModel>
